# xmcd
# 
# Track frame offsets:
#     150
#     16374
#     34245
#     50565
#     66991
#     87648
#     103088
#     123286
#     143285
#     163356
# 
# Disc length: 2352
# 
# Revision: 0
# Processed by: cddbd v1.5.2PL0 Copyright (c) Steve Scherf et al.
# Submitted via: fre:ac v1.0.17
# 
DISCID=8b092e0a
DTITLE=Procol Harum - Procol's Ninth
DYEAR=1975
DGENRE=Pop
TTITLE0=Pandora's Box
TTITLE1=Fool's Gold
TTITLE2=Taking The Time
TTITLE3=The Unquiet Zone
TTITLE4=The Final Thrust
TTITLE5=I Keep Forgetting
TTITLE6=Without A Doubt
TTITLE7=The Pipers Tune
TTITLE8=Typewriter Torment
TTITLE9=Eight Days A Week
EXTD=\n\nProduced by Jerry Leiber and Mike Stoller\n\nreleased 1975, CD released1995
EXTT0=
EXTT1=
EXTT2=
EXTT3=
EXTT4=
EXTT5=By Jerry Leiber and Mike Stoller\nPublisched by Trio Music Except
EXTT6=
EXTT7=
EXTT8=
EXTT9=By John Lennen and Paul McCartney\nPublished by Nothern Songs
PLAYORDER=
